<svg width="628" height="1107" viewBox="0 0 628 1107" fill="none" xmlns="http://www.w3.org/2000/svg">
<g clip-path="url(#clip0_10202_2405)">
<path d="M395.357 553.5C395.357 640.654 466.346 711.643 553.5 711.643H632.572V869.786H553.5C379.016 869.786 237.214 727.809 237.214 553.5C237.214 379.192 379.016 237.214 553.5 237.214H869.786V395.357H553.5C466.346 395.357 395.357 466.17 395.357 553.5Z" fill="white"/>
<path d="M158.143 553.5C158.143 771.386 335.439 948.857 553.5 948.857H632.571V1107H553.5C248.284 1107 0 858.716 0 553.5C0 248.284 248.284 0 553.5 0H869.786V158.143H553.5C335.439 158.143 158.143 335.439 158.143 553.5Z" fill="white"/>
</g>
<defs>
<clipPath id="clip0_10202_2405">
<rect width="1107" height="1107" fill="white"/>
</clipPath>
</defs>
</svg>
